<svg width="170" height="69" viewBox="0 0 170 69" fill="none" xmlns="http://www.w3.org/2000/svg">
<path d="M18.4901 17.5203H18.8385C19.4856 17.5203 19.8755 17.4041 20.0082 17.1718V16.9727C20.0082 16.8234 20.0082 16.6326 20.0082 16.4003C20.0082 16.1681 20.0082 15.8943 20.0082 15.5791C20.0082 15.2639 20.0165 14.9071 20.0331 14.509C20.0497 14.1108 20.0497 13.696 20.0331 13.2646C20.0165 12.8333 20.0165 12.377 20.0331 11.8959C20.0497 11.4147 20.0497 10.9419 20.0331 10.4773C20.0331 9.86344 20.0331 9.21638 20.0331 8.53615C20.0331 7.85591 20.0331 7.23374 20.0331 6.66964C20.0331 6.10554 20.0331 5.60781 20.0331 5.17644C20.0331 4.74507 20.0248 4.38006 20.0082 4.08142C19.9916 3.78278 19.9916 3.64176 20.0082 3.65835C19.9584 3.34312 19.8423 3.13573 19.6598 3.03618C19.4773 2.93663 19.104 2.86197 18.5399 2.8122H18.0919V2.23981C18.0919 1.85821 18.1085 1.66741 18.1417 1.66741L18.3906 1.64252C18.5565 1.62593 18.797 1.60934 19.1123 1.59275C19.4275 1.57616 19.7344 1.55957 20.0331 1.54298C20.3151 1.52639 20.6221 1.5098 20.9539 1.4932C21.2857 1.47661 21.5346 1.45173 21.7005 1.41854C21.8664 1.38536 21.9577 1.37707 21.9742 1.39366H22.0489V9.23297C22.0489 14.4924 22.0572 17.1387 22.0738 17.1718C22.1402 17.3046 22.2397 17.3958 22.3724 17.4456C22.7208 17.4954 23.1273 17.5203 23.5919 17.5203H23.9901V18.665H23.791L23.2186 18.6402C22.837 18.6236 22.4305 18.6153 21.9991 18.6153C21.5678 18.6153 21.2525 18.607 21.0534 18.5904C20.8543 18.5738 20.5391 18.5738 20.1077 18.5904C19.6764 18.607 19.2616 18.6236 18.8634 18.6402L18.291 18.665H18.0919V17.5203H18.4901Z" fill="#FCFCFC"/>
<path d="M26.0805 3.50903C26.0805 3.04448 26.2298 2.67947 26.5285 2.41401C26.8271 2.14855 27.1921 2.01583 27.6235 2.01583C28.0051 2.04901 28.3369 2.19003 28.619 2.4389C28.901 2.68777 29.042 3.04448 29.042 3.50903C29.042 4.00676 28.901 4.38006 28.619 4.62893C28.3369 4.8778 27.9885 5.00223 27.5737 5.00223C27.1589 5.00223 26.8105 4.8778 26.5285 4.62893C26.2464 4.38006 26.0971 4.00676 26.0805 3.50903ZM30.5103 18.665C30.2615 18.6153 29.3987 18.5904 27.9221 18.5904C27.7396 18.5904 27.4327 18.5904 27.0013 18.5904C26.5699 18.5904 26.1552 18.607 25.757 18.6402L25.2095 18.665H25.0104V17.5203H25.4086C25.8731 17.5203 26.2796 17.4954 26.628 17.4456C26.7773 17.3792 26.8686 17.288 26.9018 17.1718C26.9349 17.0557 26.9515 16.7073 26.9515 16.1266V13.5633V11.3732C26.9515 10.5105 26.9349 9.96298 26.9018 9.73071C26.8686 9.49843 26.7524 9.34082 26.5534 9.25786C26.3211 9.14172 25.9312 9.08365 25.3837 9.08365H25.1099V8.51126C25.1099 8.12966 25.1265 7.93886 25.1597 7.93886L25.4086 7.91398C25.5745 7.89739 25.8068 7.88079 26.1054 7.8642C26.404 7.84761 26.7027 7.83102 27.0013 7.81443C27.2834 7.79784 27.582 7.78125 27.8972 7.76466C28.2125 7.74806 28.453 7.72318 28.619 7.69C28.7849 7.65681 28.8761 7.64852 28.8927 7.66511H28.9674V17.1221C29.0503 17.288 29.1499 17.3875 29.266 17.4207C29.3821 17.4539 29.6725 17.4871 30.137 17.5203H30.7094V18.665H30.5103Z" fill="#FCFCFC"/>
<path d="M32.3022 17.5203H32.6507C33.2977 17.5203 33.6876 17.4041 33.8203 17.1718V16.9727C33.8203 16.8234 33.8203 16.6326 33.8203 16.4003C33.8203 16.1681 33.8203 15.9109 33.8203 15.6289C33.8203 15.3468 33.8286 15.0233 33.8452 14.6583C33.8618 14.2933 33.8618 13.9449 33.8452 13.613C33.8452 13.0987 33.8452 12.5512 33.8452 11.9705C33.8452 11.3898 33.8369 10.9004 33.8203 10.5022V9.9298C33.7706 9.61457 33.6544 9.40718 33.4719 9.30763C33.2894 9.20809 32.9161 9.13343 32.352 9.08365H31.9041V8.51126C31.9041 8.12966 31.9206 7.93886 31.9538 7.93886L32.2027 7.91398C32.3686 7.89739 32.6009 7.88079 32.8995 7.8642C33.1982 7.84761 33.5051 7.83102 33.8203 7.81443C34.1024 7.79784 34.401 7.78125 34.7163 7.76466C35.0315 7.74806 35.2721 7.72318 35.438 7.69C35.6039 7.65681 35.6951 7.64852 35.7117 7.66511H35.7864V8.66058C35.7864 9.29104 35.7947 9.60627 35.8113 9.60627C35.8279 9.60627 35.8693 9.5648 35.9357 9.48184C36.0021 9.39888 36.1016 9.27445 36.2343 9.10854C36.3671 8.94263 36.5247 8.79331 36.7072 8.66058C36.8897 8.52785 37.1303 8.37023 37.4289 8.18773C37.7275 8.00523 38.0428 7.8725 38.3746 7.78954C38.7064 7.70659 39.1295 7.66511 39.6438 7.66511C39.8927 7.66511 40.125 7.6817 40.3407 7.71488C40.5563 7.74806 40.7471 7.79784 40.913 7.8642C41.079 7.93057 41.2366 7.99693 41.3859 8.0633C41.5352 8.12966 41.6596 8.20432 41.7592 8.28728C41.8587 8.37023 41.95 8.46148 42.0329 8.56103C42.1159 8.66058 42.1906 8.75183 42.2569 8.83479C42.3233 8.91774 42.3814 9.00899 42.4311 9.10854C42.4809 9.20809 42.5141 9.29104 42.5307 9.35741C42.5473 9.42377 42.5722 9.49014 42.6053 9.5565L42.6551 9.68093L42.7298 9.58139C42.7795 9.51502 42.8293 9.44866 42.8791 9.38229C42.9289 9.31593 43.0035 9.22468 43.1031 9.10854C43.2026 8.9924 43.3105 8.88456 43.4266 8.78501C43.5427 8.68546 43.6672 8.57762 43.7999 8.46148C43.9326 8.34535 44.0985 8.2458 44.2976 8.16284C44.4967 8.07989 44.6875 7.99693 44.87 7.91398C45.0525 7.83102 45.2682 7.77295 45.5171 7.73977C45.766 7.70659 46.0231 7.6817 46.2886 7.66511C48.3791 7.66511 49.5156 8.60251 49.6981 10.4773C49.7146 10.5934 49.7229 11.7465 49.7229 13.9366V16.0768C49.7229 16.7073 49.7395 17.0806 49.7727 17.1967C49.8059 17.3129 49.8972 17.3958 50.0465 17.4456C50.3949 17.4954 50.8014 17.5203 51.2659 17.5203H51.6641V18.665H51.465L50.8926 18.6402C50.4944 18.6236 50.0714 18.6153 49.6234 18.6153C49.1754 18.6153 48.8602 18.607 48.6777 18.5904C46.9688 18.5904 46.0397 18.6153 45.8904 18.665H45.6913V17.5203H46.0895C47.1015 17.5203 47.6076 17.3875 47.6076 17.1221C47.6242 17.0889 47.6325 15.9441 47.6325 13.6877C47.6159 11.4479 47.5993 10.2616 47.5827 10.1289C47.4831 9.66434 47.3172 9.31593 47.085 9.08365C46.8527 8.85138 46.6536 8.71035 46.4877 8.66058C46.3218 8.6108 46.1061 8.59421 45.8406 8.6108C45.094 8.6108 44.4387 8.89285 43.8746 9.45695C43.4266 9.90491 43.1446 10.3612 43.0284 10.8257C42.9123 11.2903 42.8459 11.9788 42.8293 12.8913V14.4841V15.9773C42.8293 16.475 42.8376 16.8068 42.8542 16.9727C42.8708 17.1387 42.8957 17.2465 42.9289 17.2963C42.9621 17.346 43.0367 17.3958 43.1528 17.4456C43.5013 17.4954 43.9077 17.5203 44.3723 17.5203H44.7705V18.665H44.5714L43.9741 18.6402C43.5925 18.6236 43.1777 18.6153 42.7298 18.6153C42.2818 18.6153 41.9666 18.607 41.7841 18.5904C40.0752 18.5904 39.1461 18.6153 38.9968 18.665H38.7977V17.5203H39.1959C40.2079 17.5203 40.714 17.3875 40.714 17.1221C40.7305 17.0889 40.7388 15.9441 40.7388 13.6877C40.7222 11.4479 40.7057 10.2616 40.6891 10.1289C40.5895 9.66434 40.4236 9.31593 40.1913 9.08365C39.9591 8.85138 39.76 8.71035 39.594 8.66058C39.4281 8.6108 39.2125 8.59421 38.947 8.6108C38.2004 8.6108 37.545 8.89285 36.9809 9.45695C36.533 9.90491 36.2509 10.3612 36.1348 10.8257C36.0187 11.2903 35.9523 11.9788 35.9357 12.8913V14.4841V15.9773C35.9357 16.475 35.944 16.8068 35.9606 16.9727C35.9772 17.1387 36.0021 17.2465 36.0352 17.2963C36.0684 17.346 36.1431 17.3958 36.2592 17.4456C36.6076 17.4954 37.0141 17.5203 37.4787 17.5203H37.8769V18.665H37.6778L37.1054 18.6402C36.7072 18.6236 36.2841 18.6153 35.8362 18.6153C35.3882 18.6153 35.073 18.607 34.8905 18.5904C33.1816 18.5904 32.2525 18.6153 32.1031 18.665H31.9041V17.5203H32.3022Z" fill="#FCFCFC"/>
<path d="M0 30.8347C0 29.6499 0.445738 28.5239 1.33721 27.4564C2.22869 26.389 3.2316 25.8494 4.34594 25.8377C4.94417 25.8377 5.47202 26.1251 5.92948 26.6999C6.11716 26.348 6.38695 26.172 6.73885 26.172C6.89134 26.172 7.02623 26.2189 7.14353 26.3128C7.26083 26.4066 7.31948 26.5239 7.31948 26.6647C7.31948 26.8172 7.10248 27.7556 6.66847 29.4799C6.23446 31.2042 6.01159 32.1777 5.99986 32.4006C5.99986 32.6939 6.04092 32.8874 6.12303 32.9812C6.20514 33.0751 6.3283 33.1279 6.49252 33.1396C6.59809 33.1279 6.71539 33.0751 6.84442 32.9812C7.09075 32.7466 7.33121 32.1836 7.56581 31.2921C7.63619 31.0575 7.69484 30.9344 7.74176 30.9226C7.76522 30.9109 7.82387 30.905 7.91771 30.905H7.98809C8.21096 30.905 8.32239 30.9578 8.32239 31.0634C8.32239 31.1338 8.29307 31.2921 8.23442 31.5385C8.17577 31.7848 8.05847 32.1015 7.88252 32.4886C7.70657 32.8757 7.51889 33.1689 7.31948 33.3683C7.16699 33.5208 6.97931 33.644 6.75644 33.7378C6.66261 33.7613 6.52185 33.773 6.33417 33.773C5.93535 33.773 5.60105 33.685 5.33126 33.5091C5.06147 33.3331 4.88552 33.1513 4.80341 32.9636L4.69784 32.6997C4.68611 32.688 4.66265 32.6939 4.62746 32.7173C4.604 32.7408 4.58054 32.7642 4.55708 32.7877C3.86502 33.4446 3.16122 33.773 2.44569 33.773C1.80055 33.773 1.23164 33.5384 0.738986 33.0692C0.246329 32.6 0 31.8552 0 30.8347ZM5.59518 27.8259C5.59518 27.7556 5.56586 27.6265 5.50721 27.4388C5.44856 27.2512 5.31366 27.0459 5.10252 26.823C4.89138 26.6002 4.6216 26.4829 4.29316 26.4711C3.88261 26.4711 3.48966 26.6529 3.1143 27.0166C2.73894 27.3802 2.44569 27.8553 2.23455 28.4418C1.89439 29.3684 1.65392 30.3303 1.51316 31.3273C1.51316 31.3625 1.51316 31.427 1.51316 31.5209C1.51316 31.6147 1.5073 31.6851 1.49557 31.732C1.49557 32.2598 1.60114 32.6235 1.81228 32.8229C2.02341 33.0223 2.27561 33.1279 2.56886 33.1396C3.01459 33.1396 3.45447 32.946 3.88847 32.559C4.32248 32.1719 4.58054 31.8728 4.66265 31.6616C4.68611 31.6147 4.84447 30.9871 5.13771 29.779C5.43096 28.5708 5.58345 27.9198 5.59518 27.8259Z" fill="#FCFCFC"/>
<path d="M14.1991 32.8405C14.0232 32.993 13.7651 33.1572 13.425 33.3331C13.0848 33.5091 12.727 33.5971 12.3517 33.5971C11.6127 33.5971 11.0203 33.3331 10.5746 32.8053C10.1289 32.2775 9.90012 31.603 9.88839 30.7819C9.88839 29.5502 10.34 28.4183 11.2432 27.3861C12.1464 26.3538 13.1493 25.8318 14.2519 25.8201C14.8032 25.8201 15.3135 26.1016 15.7827 26.6647L15.8355 26.5943C15.8589 26.5591 15.8883 26.5239 15.9234 26.4887C15.9586 26.4535 16.0114 26.4066 16.0818 26.348C16.1522 26.2893 16.2284 26.2483 16.3105 26.2248C16.3926 26.2013 16.4865 26.1837 16.5921 26.172C16.7563 26.172 16.8912 26.2248 16.9967 26.3304C17.1023 26.4359 17.161 26.5474 17.1727 26.6647C17.1727 26.8406 16.8384 28.2599 16.1698 30.9226C15.5012 33.5853 15.1493 34.946 15.1141 35.0047C14.9029 35.6381 14.4513 36.1601 13.7593 36.5706C13.0672 36.9812 12.2754 37.1923 11.384 37.204C9.73004 37.204 8.90308 36.8052 8.90308 36.0076C8.90308 35.7026 9.00865 35.4328 9.21978 35.1982C9.43092 34.9636 9.70071 34.8463 10.0292 34.8463C10.2051 34.8463 10.3693 34.8991 10.5218 35.0047C10.6743 35.1102 10.7564 35.292 10.7681 35.5501C10.7681 35.6674 10.7564 35.7788 10.7329 35.8844C10.7095 35.99 10.6684 36.0721 10.6098 36.1307C10.5511 36.1894 10.5042 36.248 10.469 36.3067C10.4338 36.3653 10.3928 36.4123 10.3459 36.4474L10.3107 36.4826H10.3283C10.4456 36.5178 10.7975 36.5354 11.384 36.5354C11.8297 36.5354 12.1816 36.465 12.4397 36.3243C12.7094 36.1953 12.9616 36.0017 13.1962 35.7436C13.4308 35.4856 13.5951 35.2099 13.6889 34.9167C13.7593 34.6938 13.8531 34.3302 13.9704 33.8258C14.1229 33.2628 14.1991 32.9343 14.1991 32.8405ZM15.4836 27.8259L15.4132 27.6324C15.378 27.5034 15.3487 27.4154 15.3252 27.3685C15.3018 27.3216 15.2666 27.2394 15.2196 27.1221C15.1727 27.0048 15.1141 26.9227 15.0437 26.8758C14.9733 26.8289 14.8971 26.7644 14.815 26.6823C14.7329 26.6002 14.6273 26.5474 14.4983 26.5239C14.3692 26.5005 14.2402 26.4829 14.1112 26.4711C13.5951 26.4711 13.0965 26.782 12.6156 27.4037C12.2637 27.8611 11.9705 28.5591 11.7359 29.4975C11.5013 30.4359 11.384 31.1162 11.384 31.5385C11.384 32.4651 11.7476 32.9285 12.4748 32.9285C13.1317 32.9285 13.7769 32.5179 14.4103 31.6968L14.551 31.5209L15.4836 27.8259Z" fill="#FCFCFC"/>
<path d="M17.806 30.6411C17.806 29.9725 17.9175 29.3626 18.1403 28.8113C18.3632 28.26 18.6506 27.8025 19.0025 27.4389C19.3544 27.0752 19.7473 26.7703 20.1813 26.5239C20.6154 26.2776 21.0259 26.0958 21.413 25.9785C21.8001 25.8612 22.1696 25.8084 22.5215 25.8201H22.5743C23.1021 25.8201 23.5596 25.9492 23.9467 26.2072C24.3337 26.4653 24.5273 26.8465 24.5273 27.3509C24.5273 28.4066 23.8763 29.0986 22.5743 29.4271C21.9995 29.5796 21.2136 29.6617 20.2165 29.6734C19.7825 29.6734 19.5597 29.6851 19.5479 29.7086C19.5479 29.7321 19.5127 29.9373 19.4424 30.3244C19.372 30.7115 19.3309 31.0517 19.3192 31.3449C19.3192 31.8962 19.4424 32.3302 19.6887 32.6469C19.935 32.9637 20.3045 33.1279 20.7972 33.1396C21.2898 33.1513 21.8353 33.0399 22.4335 32.8053C23.0317 32.5707 23.5713 32.1836 24.0522 31.644C24.1578 31.5267 24.2282 31.4681 24.2634 31.4681C24.3103 31.4681 24.3865 31.5209 24.4921 31.6264C24.5977 31.732 24.6563 31.8141 24.668 31.8728C24.6798 31.9314 24.627 32.0253 24.5097 32.1543C24.3924 32.2833 24.2164 32.4417 23.9818 32.6294C23.7472 32.817 23.4775 32.9988 23.1725 33.1748C22.8675 33.3507 22.498 33.4974 22.064 33.6147C21.63 33.732 21.1843 33.7906 20.7268 33.7906C19.8001 33.7906 19.0846 33.4798 18.5802 32.8581C18.0758 32.2364 17.8178 31.4974 17.806 30.6411ZM23.6827 27.3861C23.6124 26.7761 23.2135 26.4711 22.4863 26.4711C22.0992 26.4711 21.7414 26.5532 21.413 26.7175C21.0845 26.8817 20.8206 27.0811 20.6212 27.3157C20.4218 27.5503 20.2517 27.7908 20.111 28.0371C19.9702 28.2834 19.8764 28.4946 19.8294 28.6705C19.7825 28.8464 19.7532 28.9579 19.7415 29.0048C19.7415 29.0165 19.8588 29.0224 20.0934 29.0224C21.4189 29.0224 22.3455 28.8816 22.8734 28.6001C23.4012 28.3186 23.671 27.9139 23.6827 27.3861Z" fill="#FCFCFC"/>
<path d="M26.3044 29.4271C26.3044 29.4271 26.3044 29.3508 26.3044 29.1983C26.3044 29.0459 26.3866 28.9286 26.5508 28.8464H40.0109C38.6502 27.8259 37.8115 26.5181 37.4948 24.9228C37.4948 24.9111 37.4948 24.8935 37.4948 24.87C37.4948 24.8465 37.4889 24.8289 37.4772 24.8172C37.4772 24.6765 37.5769 24.6061 37.7763 24.6061H37.8291C37.9347 24.6061 38.0051 24.6119 38.0402 24.6237C38.0754 24.6354 38.1106 24.6589 38.1458 24.6941C38.181 24.7292 38.1986 24.782 38.1986 24.8524C38.1986 24.9228 38.2162 25.0166 38.2514 25.1339C38.2866 25.2512 38.3335 25.3978 38.3921 25.5738C38.6502 26.3597 39.0783 27.0635 39.6766 27.6852C40.2748 28.3069 40.9727 28.7467 41.7704 29.0048C41.8759 29.04 41.9287 29.1045 41.9287 29.1983C41.9287 29.2687 41.8994 29.3215 41.8407 29.3567C41.7821 29.3919 41.6413 29.4505 41.4185 29.5327C41.1956 29.6148 40.9727 29.7262 40.7499 29.867C40.2689 30.1719 39.8525 30.5238 39.5006 30.9226C39.1487 31.3215 38.8848 31.7144 38.7089 32.1015C38.5329 32.4886 38.4097 32.7818 38.3394 32.9813C38.269 33.1807 38.2221 33.3625 38.1986 33.5267C38.1751 33.644 38.1458 33.7144 38.1106 33.7378C38.0754 33.7613 37.9816 33.7789 37.8291 33.7906C37.5945 33.7906 37.4772 33.7261 37.4772 33.5971C37.4772 33.515 37.5065 33.3683 37.5652 33.1572C37.9405 31.6792 38.7558 30.4769 40.0109 29.5502H26.5508C26.3866 29.4681 26.3044 29.3508 26.3044 29.1983V29.4271Z" fill="#FCFCFC"/>
<path d="M43.6002 30.6411C43.6002 29.9725 43.7117 29.3626 43.9345 28.8113C44.1574 28.26 44.4448 27.8025 44.7967 27.4389C45.1486 27.0752 45.5415 26.7703 45.9755 26.5239C46.4095 26.2776 46.8201 26.0958 47.2072 25.9785C47.5943 25.8612 47.9638 25.8084 48.3157 25.8201H48.3684C48.8963 25.8201 49.3538 25.9492 49.7408 26.2072C50.1279 26.4653 50.3215 26.8465 50.3215 27.3509C50.3215 28.4066 49.6705 29.0986 48.3684 29.4271C47.7937 29.5796 47.0078 29.6617 46.0107 29.6734C45.5767 29.6734 45.3538 29.6851 45.3421 29.7086C45.3421 29.7321 45.3069 29.9373 45.2365 30.3244C45.1662 30.7115 45.1251 31.0517 45.1134 31.3449C45.1134 31.8962 45.2365 32.3302 45.4829 32.6469C45.7292 32.9637 46.0987 33.1279 46.5914 33.1396C47.084 33.1513 47.6295 33.0399 48.2277 32.8053C48.8259 32.5707 49.3655 32.1836 49.8464 31.644C49.952 31.5267 50.0224 31.4681 50.0576 31.4681C50.1045 31.4681 50.1807 31.5209 50.2863 31.6264C50.3919 31.732 50.4505 31.8141 50.4622 31.8728C50.474 31.9314 50.4212 32.0253 50.3039 32.1543C50.1866 32.2833 50.0106 32.4417 49.776 32.6294C49.5414 32.817 49.2716 32.9988 48.9667 33.1748C48.6617 33.3507 48.2922 33.4974 47.8582 33.6147C47.4242 33.732 46.9784 33.7906 46.521 33.7906C45.5943 33.7906 44.8788 33.4798 44.3744 32.8581C43.87 32.2364 43.6119 31.4974 43.6002 30.6411ZM49.4769 27.3861C49.4065 26.7761 49.0077 26.4711 48.2805 26.4711C47.8934 26.4711 47.5356 26.5532 47.2072 26.7175C46.8787 26.8817 46.6148 27.0811 46.4154 27.3157C46.216 27.5503 46.0459 27.7908 45.9052 28.0371C45.7644 28.2834 45.6706 28.4946 45.6236 28.6705C45.5767 28.8464 45.5474 28.9579 45.5357 29.0048C45.5357 29.0165 45.653 29.0224 45.8876 29.0224C47.213 29.0224 48.1397 28.8816 48.6676 28.6001C49.1954 28.3186 49.4652 27.9139 49.4769 27.3861Z" fill="#FCFCFC"/>
<path d="M52.0281 28.5121C52.1102 28.0195 52.4269 27.4506 52.9782 26.8054C53.5295 26.1603 54.2099 25.8319 55.0193 25.8201C55.4298 25.8201 55.8052 25.9257 56.1453 26.1368C56.4855 26.348 56.7377 26.6119 56.9019 26.9286C57.3946 26.1896 57.9869 25.8201 58.679 25.8201C59.113 25.8201 59.4884 25.9492 59.8051 26.2072C60.1218 26.4653 60.286 26.8113 60.2977 27.2453C60.2977 27.5855 60.2156 27.8611 60.0514 28.0723C59.8872 28.2834 59.7288 28.4124 59.5763 28.4594C59.4238 28.5063 59.2889 28.5297 59.1717 28.5297C58.9488 28.5297 58.767 28.4652 58.6262 28.3362C58.4854 28.2072 58.4151 28.0371 58.4151 27.8259C58.4151 27.2864 58.7083 26.9169 59.2948 26.7175C59.1658 26.565 58.9312 26.4887 58.591 26.4887C58.4385 26.4887 58.3271 26.5005 58.2567 26.5239C57.811 26.7116 57.4825 27.0987 57.2714 27.6852C56.5676 30.2775 56.2157 31.7907 56.2157 32.2247C56.2157 32.5531 56.3095 32.7877 56.4972 32.9285C56.6849 33.0692 56.8902 33.1396 57.113 33.1396C57.5471 33.1396 57.9752 32.9461 58.3975 32.559C58.8198 32.1719 59.1071 31.6968 59.2596 31.1338C59.2948 31.0165 59.33 30.952 59.3652 30.9402C59.4004 30.9285 59.4942 30.9168 59.6467 30.9051H59.7171C59.893 30.9051 59.981 30.952 59.981 31.0458C59.981 31.0575 59.9693 31.1221 59.9458 31.2394C59.7581 31.908 59.3945 32.5003 58.8549 33.0164C58.3154 33.5326 57.6878 33.7906 56.9723 33.7906C56.1512 33.7906 55.5295 33.4211 55.1072 32.6821C54.6263 33.4094 54.075 33.773 53.4533 33.773H53.3477C52.773 33.773 52.3624 33.6205 52.1161 33.3156C51.8698 33.0106 51.7407 32.688 51.729 32.3478C51.729 31.9725 51.8404 31.6675 52.0633 31.4329C52.2862 31.1983 52.5501 31.081 52.8551 31.081C53.3595 31.081 53.6117 31.3273 53.6117 31.82C53.6117 32.0546 53.5413 32.2599 53.4005 32.4358C53.2598 32.6118 53.1249 32.7291 52.9958 32.7877C52.8668 32.8464 52.7906 32.8757 52.7671 32.8757L52.7143 32.8933C52.7143 32.905 52.7495 32.9285 52.8199 32.9637C52.8903 32.9988 52.9841 33.0399 53.1014 33.0868C53.2187 33.1337 53.3301 33.1513 53.4357 33.1396C53.858 33.1396 54.2216 32.8757 54.5266 32.3478C54.6322 32.1602 54.7671 31.7613 54.9313 31.1514C55.0955 30.5414 55.2597 29.908 55.4239 29.2511C55.5882 28.5943 55.682 28.2072 55.7055 28.0899C55.7641 27.7732 55.7934 27.5444 55.7934 27.4037C55.7934 27.0752 55.7055 26.8406 55.5295 26.6999C55.3536 26.5591 55.1541 26.4887 54.9313 26.4887C54.4621 26.4887 54.0222 26.6764 53.6117 27.0518C53.2011 27.4271 52.9137 27.9081 52.7495 28.4946C52.726 28.6001 52.6967 28.6588 52.6615 28.6705C52.6263 28.6822 52.5325 28.694 52.38 28.7057H52.1337C52.0633 28.6353 52.0281 28.5708 52.0281 28.5121Z" fill="#FCFCFC"/>
<path d="M61.5822 28.5473C61.5939 28.5121 61.6057 28.4652 61.6174 28.4066C61.6291 28.3479 61.6585 28.2189 61.7054 28.0195C61.7523 27.8201 61.811 27.6383 61.8813 27.474C61.9517 27.3098 62.0397 27.1163 62.1453 26.8934C62.2508 26.6705 62.3681 26.4946 62.4972 26.3656C62.6262 26.2365 62.7787 26.1075 62.9546 25.9785C63.1306 25.8494 63.3241 25.7967 63.5353 25.8201C64.415 25.8201 64.978 26.1955 65.2244 26.9462L65.4003 26.7878C66.1276 26.1427 66.8196 25.8201 67.4765 25.8201C68.239 25.8201 68.8372 26.0958 69.2712 26.6471C69.7052 27.1984 69.9222 27.867 69.9222 28.6529C69.9222 29.9197 69.4765 31.0869 68.585 32.1543C67.6935 33.2217 66.6847 33.7613 65.5587 33.773C65.3006 33.773 65.0719 33.7378 64.8725 33.6674C64.7434 33.6088 64.6085 33.5208 64.4678 33.4035C64.327 33.2862 64.2156 33.1865 64.1335 33.1044L64.0103 32.9637C63.9986 32.9754 63.8696 33.4856 63.6232 34.4944C63.3769 35.5032 63.2537 36.0134 63.2537 36.0252C63.2537 36.0955 63.3007 36.1366 63.3945 36.1483C63.4883 36.1601 63.7053 36.1777 64.0455 36.2011H64.4854C64.5558 36.2832 64.5909 36.336 64.5909 36.3595C64.5909 36.3829 64.5734 36.4885 64.5382 36.6762C64.503 36.8169 64.4678 36.9049 64.4326 36.9401C64.3974 36.9753 64.3212 36.9988 64.2039 37.0105C64.1804 37.0105 64.1159 37.0105 64.0103 37.0105C63.9047 37.0105 63.7053 37.0046 63.4121 36.9929C63.1188 36.9812 62.7552 36.9753 62.3212 36.9753C61.5001 36.9753 60.9781 36.987 60.7553 37.0105H60.6145C60.5324 36.9284 60.4913 36.8639 60.4913 36.8169C60.5148 36.5002 60.591 36.295 60.7201 36.2011H61.072C61.4708 36.1894 61.6995 36.119 61.7582 35.99C61.7934 35.9196 62.1511 34.5179 62.8315 31.7848C63.5118 29.0517 63.8696 27.6031 63.9047 27.4389C63.9165 27.3802 63.9223 27.2981 63.9223 27.1925C63.9223 26.7116 63.7757 26.4711 63.4825 26.4711C63.2244 26.4711 63.0074 26.6354 62.8315 26.9638C62.6555 27.2922 62.5206 27.65 62.4268 28.0371C62.3329 28.4242 62.2626 28.6353 62.2156 28.6705C62.1922 28.694 62.0983 28.7057 61.9341 28.7057H61.6878C61.6174 28.6353 61.5822 28.5825 61.5822 28.5473ZM64.3094 31.8024C64.5675 32.6939 65.0015 33.1396 65.6115 33.1396C65.9633 33.1396 66.3035 33.0047 66.632 32.7349C66.9604 32.4651 67.2302 32.125 67.4413 31.7144C67.6525 31.3156 67.8636 30.6822 68.0747 29.8142C68.2859 28.9461 68.3973 28.301 68.409 27.8787V27.7732C68.409 26.9051 68.0513 26.4711 67.3358 26.4711C67.2067 26.4711 67.0777 26.4887 66.9487 26.5239C66.8196 26.5591 66.6906 26.6119 66.5616 26.6823C66.4325 26.7527 66.3152 26.8289 66.2097 26.911C66.1041 26.9931 66.0044 27.0811 65.9106 27.1749C65.8167 27.2688 65.7288 27.3567 65.6466 27.4389C65.5645 27.521 65.5 27.6031 65.4531 27.6852C65.4062 27.7673 65.3593 27.8259 65.3123 27.8611L65.2596 27.9315C65.2596 27.9432 65.242 28.0253 65.2068 28.1778C65.1716 28.3303 65.1071 28.5884 65.0132 28.952C64.9194 29.3156 64.8373 29.6206 64.7669 29.8669C64.4619 31.1103 64.3094 31.7555 64.3094 31.8024Z" fill="#FCFCFC"/>
<path d="M77.0983 17.1967C77.0983 17.7442 77.3056 18.018 77.7204 18.018C78.3343 18.018 78.8569 17.1469 79.2883 15.4049C79.3878 15.073 79.4708 14.8988 79.5372 14.8822C79.5703 14.8657 79.6533 14.8574 79.786 14.8574H79.8856C80.0349 14.8574 80.1344 14.8574 80.1842 14.8574C80.234 14.8574 80.2755 14.874 80.3086 14.9071C80.3418 14.9403 80.3584 14.9984 80.3584 15.0813C80.3418 15.1809 80.3169 15.3136 80.2838 15.4795C80.2506 15.6454 80.1593 15.9607 80.01 16.4252C79.8607 16.8898 79.6948 17.2797 79.5123 17.5949C79.3298 17.9101 79.0726 18.2171 78.7408 18.5157C78.409 18.8144 78.0274 18.9554 77.596 18.9388C76.9987 18.9388 76.4429 18.7563 75.9286 18.3913C75.4143 18.0263 75.1488 17.4124 75.1322 16.5497C75.1322 16.3506 75.1405 16.2095 75.1571 16.1266L76.7747 9.70581C77.82 5.47507 78.3426 3.29333 78.3426 3.1606C78.3426 3.11083 78.3343 3.06935 78.3177 3.03617C78.3011 3.00299 78.2679 2.96981 78.2182 2.93662C78.1684 2.90344 78.1269 2.88685 78.0937 2.88685C78.0605 2.88685 77.9942 2.87856 77.8946 2.86196C77.7951 2.84537 77.7287 2.83708 77.6955 2.83708C77.6624 2.83708 77.5877 2.82878 77.4716 2.81219C77.3554 2.7956 77.2725 2.7956 77.2227 2.81219C77.0568 2.81219 76.9489 2.81219 76.8992 2.81219C76.8494 2.81219 76.783 2.80389 76.7001 2.7873C76.6171 2.77071 76.5673 2.74582 76.5507 2.71264C76.5342 2.67946 76.5259 2.62969 76.5259 2.56332C76.5259 2.53014 76.5424 2.414 76.5756 2.21491C76.6586 1.89968 76.7498 1.72547 76.8494 1.69229C76.9489 1.65911 77.5462 1.60933 78.6412 1.54297C78.8901 1.52638 79.1721 1.50978 79.4874 1.49319C79.8026 1.4766 80.0515 1.45172 80.234 1.41853C80.4165 1.38535 80.5077 1.37706 80.5077 1.39365C80.7068 1.39365 80.8064 1.46001 80.8064 1.59274C80.8064 1.77524 80.2008 4.26392 78.9896 9.05876C77.7785 13.8536 77.1563 16.3672 77.1231 16.5994C77.1231 16.6326 77.1231 16.699 77.1231 16.7985C77.1231 16.8981 77.1148 16.981 77.0983 17.0474V17.1967Z" fill="#FCFCFC"/>
<path d="M86.1819 3.733C86.1819 3.33481 86.3395 2.9864 86.6547 2.68776C86.97 2.38911 87.335 2.2315 87.7498 2.21491C88.0484 2.21491 88.2973 2.31446 88.4964 2.51355C88.6955 2.71264 88.8033 2.96151 88.8199 3.26015C88.8199 3.64175 88.654 3.99016 88.3222 4.30539C87.9903 4.62062 87.6253 4.78653 87.2271 4.80313C86.9783 4.80313 86.746 4.72017 86.5303 4.55426C86.3146 4.38835 86.1985 4.11459 86.1819 3.733ZM82.1254 11.5225C82.1254 11.3898 82.2 11.1326 82.3493 10.7511C82.4987 10.3695 82.6978 9.94638 82.9466 9.48183C83.1955 9.01728 83.5605 8.5942 84.0416 8.21261C84.5228 7.83101 85.0205 7.64851 85.5348 7.6651C86.1819 7.6651 86.7211 7.8559 87.1525 8.23749C87.5839 8.61909 87.8078 9.13342 87.8244 9.78047C87.8244 10.0625 87.7083 10.5271 87.476 11.1741C87.2437 11.8212 86.9119 12.6922 86.4805 13.7872C86.0492 14.8822 85.7008 15.8196 85.4353 16.5994C85.3523 16.9644 85.3109 17.2299 85.3109 17.3958C85.3109 17.8106 85.4519 18.018 85.7339 18.018C85.8833 18.018 86.0409 17.9931 86.2068 17.9433C86.3727 17.8935 86.5635 17.7774 86.7792 17.5949C86.9949 17.4124 87.2188 17.1221 87.4511 16.7239C87.6834 16.3257 87.8908 15.8362 88.0733 15.2555C88.1231 15.0565 88.1645 14.9403 88.1977 14.9071C88.2309 14.874 88.3719 14.8574 88.6208 14.8574C88.9526 14.8574 89.1185 14.9403 89.1185 15.1062C89.1185 15.239 89.0439 15.4961 88.8946 15.8777C88.7452 16.2593 88.5378 16.6824 88.2724 17.1469C88.0069 17.6115 87.6336 18.0263 87.1525 18.3913C86.6713 18.7563 86.157 18.9388 85.6095 18.9388C85.0786 18.9388 84.5892 18.7646 84.1412 18.4162C83.6932 18.0677 83.461 17.5368 83.4444 16.8234C83.4444 16.5414 83.4858 16.2759 83.5688 16.027C83.6518 15.7782 84.0085 14.8325 84.6389 13.1899C85.2694 11.5142 85.6344 10.5105 85.7339 10.1787C85.8335 9.84683 85.8916 9.52331 85.9081 9.20807C85.9081 8.80989 85.7671 8.61079 85.4851 8.61079H85.4353C84.9376 8.61079 84.4813 8.88455 84.0665 9.43206C83.6518 9.97956 83.3365 10.6764 83.1208 11.5225C83.1042 11.5391 83.0877 11.564 83.0711 11.5972C83.0545 11.6304 83.0462 11.6553 83.0462 11.6719C83.0462 11.6885 83.0296 11.705 82.9964 11.7216C82.9632 11.7382 82.9383 11.7465 82.9217 11.7465C82.9052 11.7465 82.872 11.7465 82.8222 11.7465C82.7724 11.7465 82.7061 11.7465 82.6231 11.7465H82.2747C82.1751 11.647 82.1254 11.5723 82.1254 11.5225Z" fill="#FCFCFC"/>
<path d="M93.1254 22.6967C93.1585 22.6967 93.2083 22.7133 93.2747 22.7465C93.341 22.7796 93.4323 22.8045 93.5484 22.8211C93.6646 22.8377 93.7641 22.846 93.8471 22.846C94.0628 22.846 94.2619 22.7382 94.4444 22.5225C94.6269 22.3068 94.7596 22.0662 94.8425 21.8008C95.0085 21.3528 95.2905 20.0836 95.6887 17.9931C96.0869 15.9026 96.4685 13.9117 96.8335 12.0203C97.1985 10.1289 97.381 9.1749 97.381 9.15831V9.08365H96.2113C95.4315 9.08365 95.0167 9.06706 94.967 9.03388C94.9006 8.98411 94.8674 8.90115 94.8674 8.78501L95.0416 8.08818C95.0748 8.00523 95.1412 7.96375 95.2407 7.96375C95.3403 7.96375 95.7302 7.95545 96.4104 7.93886C97.2068 7.93886 97.605 7.93057 97.605 7.91398C97.605 7.88079 97.6796 7.46601 97.8289 6.66964C97.9783 5.87326 98.0778 5.39212 98.1276 5.22621C98.7415 2.48867 99.9526 1.1199 101.761 1.1199C102.375 1.15308 102.881 1.33559 103.279 1.66741C103.677 1.99923 103.876 2.4389 103.876 2.98641C103.876 3.58369 103.702 4.01506 103.354 4.28052C103.005 4.54597 102.657 4.687 102.309 4.70359C101.579 4.70359 101.214 4.35518 101.214 3.65835C101.214 3.34311 101.305 3.06936 101.487 2.83709C101.67 2.60481 101.869 2.4306 102.085 2.31446L102.309 2.19003C102.043 2.09048 101.794 2.04071 101.562 2.04071C101.363 2.04071 101.172 2.12367 100.99 2.28958C100.807 2.45549 100.683 2.68777 100.616 2.98641C100.5 3.46755 100.367 4.1146 100.218 4.92757C100.069 5.74054 99.936 6.42907 99.8199 6.99317C99.7037 7.55727 99.6457 7.85591 99.6457 7.88909C99.6457 7.92227 100.102 7.93886 101.014 7.93886C101.761 7.93886 102.192 7.94716 102.309 7.96375C102.425 7.98034 102.516 8.03011 102.582 8.11307C102.599 8.17943 102.582 8.32046 102.533 8.53614C102.483 8.75183 102.441 8.88456 102.408 8.93433C102.375 9.01729 102.3 9.05876 102.184 9.05876C102.068 9.05876 101.62 9.06706 100.84 9.08365H99.4466L98.8742 12.1198C98.0778 16.2344 97.522 18.8061 97.2068 19.8347C96.7588 21.245 96.1781 22.2902 95.4647 22.9704C94.8508 23.5014 94.2453 23.7668 93.648 23.7668C93.1171 23.7668 92.6359 23.6092 92.2045 23.294C91.7732 22.9787 91.5575 22.5308 91.5575 21.9501C91.5575 21.3362 91.7317 20.8883 92.0801 20.6062C92.4285 20.3242 92.7769 20.1831 93.1254 20.1831C93.8554 20.1831 94.2204 20.5315 94.2204 21.2284C94.2204 21.5436 94.1291 21.8174 93.9466 22.0496C93.7641 22.2819 93.565 22.4561 93.3493 22.5723L93.1254 22.6967Z" fill="#FCFCFC"/>
<path d="M104.847 14.4841C104.847 13.5384 105.005 12.6756 105.32 11.8958C105.635 11.1161 106.041 10.469 106.539 9.95468C107.037 9.44035 107.593 9.00898 108.207 8.66057C108.821 8.31215 109.401 8.05499 109.949 7.88908C110.496 7.72317 111.019 7.64851 111.517 7.6651H111.591C112.338 7.6651 112.985 7.8476 113.532 8.21261C114.08 8.57761 114.354 9.11682 114.354 9.83024C114.354 11.3234 113.433 12.3023 111.591 12.7669C110.778 12.9826 109.667 13.0987 108.256 13.1153C107.643 13.1153 107.327 13.1319 107.311 13.1651C107.311 13.1982 107.261 13.4886 107.161 14.0361C107.062 14.5836 107.004 15.0647 106.987 15.4795C106.987 16.2593 107.161 16.8732 107.51 17.3211C107.858 17.7691 108.381 18.0014 109.078 18.018C109.774 18.0346 110.546 17.8769 111.392 17.5451C112.238 17.2133 113.001 16.6658 113.682 15.9026C113.831 15.7367 113.931 15.6537 113.98 15.6537C114.047 15.6537 114.155 15.7284 114.304 15.8777C114.453 16.027 114.536 16.1432 114.553 16.2261C114.569 16.3091 114.495 16.4418 114.329 16.6243C114.163 16.8068 113.914 17.0308 113.582 17.2963C113.25 17.5617 112.869 17.8189 112.437 18.0677C112.006 18.3166 111.483 18.524 110.87 18.6899C110.256 18.8558 109.625 18.9388 108.978 18.9388C107.667 18.9388 106.655 18.4991 105.942 17.6198C105.229 16.7405 104.864 15.6952 104.847 14.4841ZM113.159 9.88002C113.06 9.01728 112.495 8.58591 111.467 8.58591C110.919 8.58591 110.413 8.70205 109.949 8.93432C109.484 9.1666 109.111 9.44865 108.829 9.78047C108.547 10.1123 108.306 10.4524 108.107 10.8008C107.908 11.1492 107.775 11.4479 107.709 11.6967C107.643 11.9456 107.601 12.1032 107.584 12.1696C107.584 12.1862 107.75 12.1945 108.082 12.1945C109.957 12.1945 111.268 11.9954 112.014 11.5972C112.761 11.199 113.142 10.6266 113.159 9.88002Z" fill="#FCFCFC"/>
<path d="M117.813 12.4434C117.813 11.2986 117.896 10.2119 118.062 9.1832C118.228 8.15455 118.419 7.26692 118.634 6.52032C118.85 5.77372 119.157 5.04371 119.555 4.33029C119.953 3.61687 120.268 3.06107 120.501 2.66288C120.733 2.26469 121.081 1.83332 121.546 1.36877C122.011 0.904219 122.284 0.622169 122.367 0.522621C122.45 0.423075 122.658 0.248867 122.989 0H123.313H123.412C123.645 0 123.761 0.0746613 123.761 0.223982C123.761 0.273754 123.62 0.447962 123.338 0.746603C123.056 1.04524 122.716 1.48491 122.317 2.0656C121.919 2.64629 121.513 3.35971 121.098 4.20586C120.683 5.052 120.335 6.19679 120.053 7.64022C119.771 9.08365 119.63 10.6847 119.63 12.4434C119.63 14.202 119.771 15.7948 120.053 17.2216C120.335 18.6484 120.675 19.8015 121.073 20.6809C121.471 21.5602 121.878 22.2736 122.293 22.8211C122.707 23.3686 123.056 23.8083 123.338 24.1401C123.62 24.4719 123.761 24.6461 123.761 24.6627C123.761 24.8121 123.636 24.8867 123.388 24.8867H123.313H122.989L122.293 24.2894C120.733 22.8792 119.597 21.1205 118.883 19.0135C118.17 16.9064 117.813 14.7163 117.813 12.4434Z" fill="#FCFCFC"/>
<path d="M125.976 14.7578C125.976 13.0821 126.606 11.4894 127.867 9.97958C129.128 8.46978 130.547 7.70659 132.123 7.69C132.969 7.69 133.716 8.09648 134.363 8.90945C134.628 8.41172 135.01 8.16285 135.507 8.16285C135.723 8.16285 135.914 8.22921 136.08 8.36194C136.246 8.49467 136.329 8.66058 136.329 8.85968C136.329 9.07536 136.022 10.4027 135.408 12.8416C134.794 15.2804 134.479 16.6575 134.462 16.9727C134.462 17.3875 134.52 17.6613 134.636 17.794C134.753 17.9267 134.927 18.0014 135.159 18.018C135.308 18.0014 135.474 17.9267 135.657 17.794C136.005 17.4622 136.345 16.6658 136.677 15.4049C136.777 15.0731 136.86 14.8989 136.926 14.8823C136.959 14.8657 137.042 14.8574 137.175 14.8574H137.274C137.59 14.8574 137.747 14.932 137.747 15.0814C137.747 15.1809 137.706 15.4049 137.623 15.7533C137.54 16.1017 137.374 16.5497 137.125 17.0972C136.876 17.6447 136.611 18.0595 136.329 18.3415C136.113 18.5572 135.848 18.7314 135.532 18.8641C135.4 18.8973 135.201 18.9139 134.935 18.9139C134.371 18.9139 133.898 18.7895 133.517 18.5406C133.135 18.2917 132.886 18.0346 132.77 17.7691L132.621 17.3958C132.604 17.3792 132.571 17.3875 132.521 17.4207C132.488 17.4539 132.455 17.4871 132.421 17.5203C131.443 18.4494 130.447 18.9139 129.435 18.9139C128.523 18.9139 127.718 18.5821 127.021 17.9184C126.324 17.2548 125.976 16.2013 125.976 14.7578ZM133.89 10.5022C133.89 10.4027 133.848 10.2201 133.765 9.95469C133.682 9.68923 133.492 9.39889 133.193 9.08366C132.894 8.76842 132.513 8.60251 132.048 8.58592C131.467 8.58592 130.912 8.84309 130.381 9.35741C129.85 9.87174 129.435 10.5437 129.136 11.3732C128.655 12.6839 128.315 14.0444 128.116 15.4547C128.116 15.5044 128.116 15.5957 128.116 15.7284C128.116 15.8611 128.108 15.9607 128.091 16.0271C128.091 16.7737 128.241 17.288 128.539 17.57C128.838 17.8521 129.195 18.0014 129.609 18.018C130.24 18.018 130.862 17.7442 131.476 17.1967C132.09 16.6492 132.455 16.2261 132.571 15.9275C132.604 15.8611 132.828 14.9735 133.243 13.2646C133.658 11.5557 133.873 10.6349 133.89 10.5022Z" fill="#FCFCFC"/>
<path d="M146.059 17.5949C145.811 17.8106 145.446 18.0429 144.964 18.2917C144.483 18.5406 143.977 18.665 143.446 18.665C142.401 18.665 141.563 18.2917 140.933 17.5451C140.302 16.7985 139.979 15.8445 139.962 14.6832C139.962 12.9411 140.601 11.34 141.878 9.88003C143.156 8.42 144.574 7.6817 146.134 7.66511C146.914 7.66511 147.636 8.0633 148.299 8.85967L148.374 8.76012C148.407 8.71035 148.449 8.66058 148.498 8.6108C148.548 8.56103 148.623 8.49467 148.722 8.41171C148.822 8.32875 148.93 8.27068 149.046 8.2375C149.162 8.20432 149.295 8.17943 149.444 8.16284C149.676 8.16284 149.867 8.2375 150.016 8.38682C150.166 8.53614 150.249 8.69376 150.265 8.85967C150.265 9.10854 149.792 11.1161 148.847 14.8823C147.901 18.6484 147.403 20.573 147.353 20.656C147.055 21.5519 146.416 22.2902 145.437 22.8709C144.458 23.4516 143.338 23.7502 142.078 23.7668C139.738 23.7668 138.568 23.2027 138.568 22.0745C138.568 21.6431 138.718 21.2616 139.016 20.9297C139.315 20.5979 139.697 20.432 140.161 20.432C140.41 20.432 140.642 20.5067 140.858 20.656C141.074 20.8053 141.19 21.0625 141.206 21.4275C141.206 21.5934 141.19 21.751 141.157 21.9003C141.124 22.0496 141.065 22.1658 140.982 22.2487C140.9 22.3317 140.833 22.4146 140.783 22.4976C140.734 22.5805 140.676 22.6469 140.609 22.6967L140.559 22.7465H140.584C140.75 22.7962 141.248 22.8211 142.078 22.8211C142.708 22.8211 143.206 22.7216 143.571 22.5225C143.952 22.34 144.309 22.0662 144.641 21.7012C144.973 21.3362 145.205 20.9463 145.338 20.5315C145.437 20.2163 145.57 19.702 145.736 18.9886C145.952 18.1922 146.059 17.7276 146.059 17.5949ZM147.876 10.5022L147.777 10.2284C147.727 10.0459 147.685 9.9215 147.652 9.85514C147.619 9.78877 147.569 9.67264 147.503 9.50672C147.436 9.34081 147.353 9.22468 147.254 9.15831C147.154 9.09195 147.047 9.00069 146.93 8.88456C146.814 8.76842 146.665 8.69376 146.482 8.66058C146.3 8.62739 146.117 8.60251 145.935 8.58592C145.205 8.58592 144.5 9.02558 143.82 9.90491C143.322 10.552 142.907 11.5391 142.575 12.8664C142.243 14.1937 142.078 15.156 142.078 15.7533C142.078 17.064 142.592 17.7193 143.62 17.7193C144.55 17.7193 145.462 17.1387 146.358 15.9773L146.557 15.7284L147.876 10.5022Z" fill="#FCFCFC"/>
<path d="M151.161 14.4841C151.161 13.5384 151.319 12.6756 151.634 11.8958C151.949 11.1161 152.356 10.469 152.853 9.95468C153.351 9.44035 153.907 9.00898 154.521 8.66057C155.135 8.31215 155.715 8.05499 156.263 7.88908C156.81 7.72317 157.333 7.64851 157.831 7.6651H157.905C158.652 7.6651 159.299 7.8476 159.847 8.21261C160.394 8.57761 160.668 9.11682 160.668 9.83024C160.668 11.3234 159.747 12.3023 157.905 12.7669C157.092 12.9826 155.981 13.0987 154.571 13.1153C153.957 13.1153 153.642 13.1319 153.625 13.1651C153.625 13.1982 153.575 13.4886 153.476 14.0361C153.376 14.5836 153.318 15.0647 153.301 15.4795C153.301 16.2593 153.476 16.8732 153.824 17.3211C154.172 17.7691 154.695 18.0014 155.392 18.018C156.089 18.0346 156.86 17.8769 157.706 17.5451C158.552 17.2133 159.316 16.6658 159.996 15.9026C160.145 15.7367 160.245 15.6537 160.295 15.6537C160.361 15.6537 160.469 15.7284 160.618 15.8777C160.767 16.027 160.85 16.1432 160.867 16.2261C160.884 16.3091 160.809 16.4418 160.643 16.6243C160.477 16.8068 160.228 17.0308 159.896 17.2963C159.565 17.5617 159.183 17.8189 158.752 18.0677C158.32 18.3166 157.798 18.524 157.184 18.6899C156.57 18.8558 155.939 18.9388 155.292 18.9388C153.982 18.9388 152.97 18.4991 152.256 17.6198C151.543 16.7405 151.178 15.6952 151.161 14.4841ZM159.473 9.88002C159.374 9.01728 158.81 8.58591 157.781 8.58591C157.233 8.58591 156.727 8.70205 156.263 8.93432C155.798 9.1666 155.425 9.44865 155.143 9.78047C154.861 10.1123 154.62 10.4524 154.421 10.8008C154.222 11.1492 154.089 11.4479 154.023 11.6967C153.957 11.9456 153.915 12.1032 153.899 12.1696C153.899 12.1862 154.065 12.1945 154.396 12.1945C156.271 12.1945 157.582 11.9954 158.329 11.5972C159.075 11.199 159.457 10.6266 159.473 9.88002Z" fill="#FCFCFC"/>
<path d="M163.281 0.0248871L163.38 0C163.463 0 163.546 0 163.629 0H163.928L164.625 0.597282C166.184 2.00753 167.321 3.76619 168.034 5.87327C168.748 7.98034 169.104 10.1704 169.104 12.4434C169.104 13.5716 169.021 14.6583 168.856 15.7035C168.69 16.7488 168.499 17.6364 168.283 18.3664C168.067 19.0964 167.761 19.8264 167.362 20.5564C166.964 21.2864 166.649 21.8422 166.417 22.2238C166.184 22.6054 165.844 23.0285 165.396 23.4931C164.948 23.9576 164.683 24.2314 164.6 24.3143C164.517 24.3973 164.326 24.5549 164.028 24.7872C163.978 24.8369 163.945 24.8701 163.928 24.8867H163.629C163.497 24.8867 163.405 24.8867 163.356 24.8867C163.306 24.8867 163.264 24.8618 163.231 24.8121C163.198 24.7623 163.173 24.6876 163.156 24.5881C163.173 24.5715 163.264 24.4636 163.43 24.2646C166.002 21.5934 167.288 17.653 167.288 12.4434C167.288 7.23374 166.002 3.29334 163.43 0.622169C163.264 0.423075 163.173 0.315233 163.156 0.298641C163.156 0.165913 163.198 0.0746613 163.281 0.0248871Z" fill="#FCFCFC"/>
<path d="M39 59.6357C39 59.42 39.1161 59.2541 39.3484 59.138H55.2013C55.4501 59.2707 55.5746 59.4366 55.5746 59.6357C55.5746 59.8182 55.4584 59.9758 55.2261 60.1085L47.3122 60.1334H39.3982C39.1327 60.0505 39 59.8846 39 59.6357ZM39 64.4637C39 64.2148 39.1327 64.0489 39.3982 63.966H55.2261C55.4584 64.1319 55.5746 64.2978 55.5746 64.4637C55.5746 64.6794 55.4501 64.8453 55.2013 64.9614H39.3484C39.1161 64.8453 39 64.6794 39 64.4637Z" fill="#FCFCFC"/>
<path d="M72.9903 51.2738C73.0069 51.2738 73.6042 51.2323 74.7821 51.1493C75.9601 51.0664 76.5657 51.0166 76.5989 51C76.7979 51 76.8975 51.0664 76.8975 51.1991C76.8975 51.3152 76.2919 53.8205 75.0808 58.7149C73.8696 63.6093 73.2474 66.1062 73.2143 66.2058C73.1811 66.3053 73.1728 66.4298 73.1894 66.5791C73.1894 67.2759 73.4216 67.6243 73.8862 67.6243C74.0355 67.6077 74.2014 67.5331 74.3839 67.4003C74.7324 67.0685 75.0725 66.2721 75.4043 65.0112C75.5038 64.6794 75.5868 64.5052 75.6532 64.4886C75.6863 64.472 75.7693 64.4637 75.902 64.4637H76.0016H76.1011C76.35 64.4637 76.4744 64.5301 76.4744 64.6628C76.4744 64.7458 76.4495 64.8785 76.3998 65.061C76.1841 65.8906 75.9352 66.5625 75.6532 67.0768C75.3711 67.5911 75.1388 67.923 74.9563 68.0723C74.7738 68.2216 74.5416 68.3543 74.2595 68.4705C74.1268 68.5037 73.9277 68.5202 73.6622 68.5202C73.0981 68.5202 72.6253 68.3958 72.2437 68.1469C71.8621 67.8981 71.6132 67.6409 71.4971 67.3755L71.3478 67.0022C71.3312 66.9856 71.298 66.9939 71.2482 67.027C71.215 67.0602 71.1818 67.0934 71.1487 67.1266C70.1698 68.0557 69.1743 68.5202 68.1623 68.5202C67.2497 68.5202 66.4451 68.1884 65.7482 67.5248C65.0514 66.8611 64.703 65.8076 64.703 64.3642C64.703 63.5678 64.8689 62.7548 65.2007 61.9253C65.5326 61.0957 65.9307 60.3823 66.3953 59.785C67.1751 58.8393 67.9549 58.184 68.7347 57.819C69.5144 57.454 70.2196 57.2715 70.85 57.2715C71.7791 57.2715 72.476 57.6199 72.9405 58.3167C73.0235 58.4162 73.0649 58.4494 73.0649 58.4162C73.0815 58.3499 73.3055 57.4457 73.7369 55.7036C74.1683 53.9615 74.4005 53.0407 74.4337 52.9412C74.4337 52.7255 74.3756 52.5927 74.2595 52.543C74.1434 52.4932 73.8198 52.4517 73.2889 52.4185H72.7663C72.6668 52.319 72.617 52.2526 72.617 52.2194C72.617 52.1863 72.6336 52.0286 72.6668 51.7466C72.7497 51.4314 72.8576 51.2738 72.9903 51.2738ZM72.6419 60.1583C72.2603 58.8476 71.6381 58.1923 70.7754 58.1923C70.1947 58.1923 69.6389 58.4494 69.108 58.9637C68.577 59.4781 68.1623 60.15 67.8636 60.9796C67.3825 62.2903 67.0424 63.6507 66.8433 65.061C66.8433 65.1108 66.8433 65.202 66.8433 65.3347C66.8433 65.4675 66.835 65.567 66.8184 65.6334C66.8184 66.38 66.9677 66.8943 67.2663 67.1764C67.565 67.4584 67.9217 67.6077 68.3365 67.6243C69.2324 67.6243 70.1532 67.027 71.0989 65.8325L71.298 65.5587L72.6419 60.1583Z" fill="#FCFCFC"/>
<path d="M77.7935 64.0904C77.7935 63.1447 77.9511 62.282 78.2663 61.5022C78.5815 60.7224 78.988 60.0754 79.4858 59.561C79.9835 59.0467 80.5393 58.6153 81.1532 58.2669C81.767 57.9185 82.3477 57.6613 82.8952 57.4954C83.4427 57.3295 83.9654 57.2549 84.4631 57.2715H84.5378C85.2844 57.2715 85.9314 57.454 86.4789 57.819C87.0264 58.184 87.3002 58.7232 87.3002 59.4366C87.3002 60.9298 86.3794 61.9087 84.5378 62.3732C83.7248 62.5889 82.6132 62.7051 81.2029 62.7216C80.5891 62.7216 80.2738 62.7382 80.2572 62.7714C80.2572 62.8046 80.2075 63.0949 80.1079 63.6425C80.0084 64.19 79.9503 64.6711 79.9337 65.0859C79.9337 65.8657 80.1079 66.4795 80.4563 66.9275C80.8047 67.3755 81.3274 67.6077 82.0242 67.6243C82.721 67.6409 83.4925 67.4833 84.3387 67.1515C85.1848 66.8197 85.948 66.2721 86.6282 65.509C86.7776 65.343 86.8771 65.2601 86.9269 65.2601C86.9932 65.2601 87.1011 65.3347 87.2504 65.4841C87.3997 65.6334 87.4827 65.7495 87.4993 65.8325C87.5159 65.9154 87.4412 66.0482 87.2753 66.2307C87.1094 66.4132 86.8605 66.6372 86.5287 66.9026C86.1969 67.1681 85.8153 67.4252 85.3839 67.6741C84.9525 67.923 84.4299 68.1304 83.816 68.2963C83.2022 68.4622 82.5717 68.5451 81.9247 68.5451C80.614 68.5451 79.6019 68.1055 78.8885 67.2261C78.1751 66.3468 77.81 65.3016 77.7935 64.0904ZM86.1056 59.4864C86.0061 58.6236 85.442 58.1923 84.4133 58.1923C83.8658 58.1923 83.3598 58.3084 82.8952 58.5407C82.4307 58.773 82.0574 59.055 81.7753 59.3868C81.4933 59.7186 81.2527 60.0588 81.0536 60.4072C80.8545 60.7556 80.7218 61.0542 80.6554 61.3031C80.5891 61.552 80.5476 61.7096 80.531 61.7759C80.531 61.7925 80.6969 61.8008 81.0287 61.8008C82.9035 61.8008 84.2142 61.6017 84.9608 61.2036C85.7074 60.8054 86.089 60.233 86.1056 59.4864Z" fill="#FCFCFC"/>
<path d="M89.2413 64.3642C89.2413 62.6885 89.8718 61.0957 91.1327 59.5859C92.3937 58.0761 93.8122 57.3129 95.3884 57.2963C96.2345 57.2963 96.9811 57.7028 97.6282 58.5158C97.8936 58.0181 98.2752 57.7692 98.7729 57.7692C98.9886 57.7692 99.1794 57.8356 99.3453 57.9683C99.5113 58.101 99.5942 58.2669 99.5942 58.466C99.5942 58.6817 99.2873 60.009 98.6734 62.4479C98.0595 64.8868 97.7443 66.2639 97.7277 66.5791C97.7277 66.9939 97.7858 67.2676 97.9019 67.4003C98.018 67.5331 98.1923 67.6077 98.4245 67.6243C98.5739 67.6077 98.7398 67.5331 98.9223 67.4003C99.2707 67.0685 99.6108 66.2721 99.9426 65.0112C100.042 64.6794 100.125 64.5052 100.191 64.4886C100.225 64.472 100.308 64.4637 100.44 64.4637H100.54C100.855 64.4637 101.013 64.5384 101.013 64.6877C101.013 64.7872 100.971 65.0112 100.888 65.3596C100.805 65.708 100.639 66.156 100.391 66.7035C100.142 67.251 99.8763 67.6658 99.5942 67.9479C99.3785 68.1635 99.1131 68.3377 98.7978 68.4705C98.6651 68.5037 98.466 68.5202 98.2006 68.5202C97.6365 68.5202 97.1636 68.3958 96.782 68.1469C96.4004 67.8981 96.1515 67.6409 96.0354 67.3755L95.8861 67.0022C95.8695 66.9856 95.8363 66.9939 95.7865 67.027C95.7534 67.0602 95.7202 67.0934 95.687 67.1266C94.7081 68.0557 93.7126 68.5202 92.7006 68.5202C91.7881 68.5202 90.9834 68.1884 90.2866 67.5248C89.5897 66.8611 89.2413 65.8076 89.2413 64.3642ZM97.1553 60.1085C97.1553 60.009 97.1138 59.8265 97.0309 59.561C96.9479 59.2956 96.7571 59.0052 96.4585 58.69C96.1598 58.3748 95.7782 58.2089 95.3137 58.1923C94.733 58.1923 94.1772 58.4494 93.6463 58.9637C93.1154 59.4781 92.7006 60.15 92.4019 60.9796C91.9208 62.2903 91.5807 63.6507 91.3816 65.061C91.3816 65.1108 91.3816 65.202 91.3816 65.3347C91.3816 65.4675 91.3733 65.567 91.3567 65.6334C91.3567 66.38 91.506 66.8943 91.8047 67.1764C92.1033 67.4584 92.46 67.6077 92.8748 67.6243C93.5053 67.6243 94.1274 67.3506 94.7413 66.8031C95.3552 66.2556 95.7202 65.8325 95.8363 65.5338C95.8695 65.4675 96.0935 64.5799 96.5083 62.871C96.923 61.1621 97.1387 60.2413 97.1553 60.1085Z" fill="#FCFCFC"/>
<path d="M102.232 58.69C102.116 58.5739 102.058 58.4909 102.058 58.4411C102.058 58.3748 102.083 58.242 102.133 58.0429C102.182 57.8438 102.224 57.7277 102.257 57.6945C102.29 57.6116 102.365 57.5701 102.481 57.5701C102.597 57.5701 103.02 57.5618 103.75 57.5452H105.069L105.542 55.5543C105.592 55.3718 105.65 55.1312 105.716 54.8326C105.783 54.5339 105.841 54.3182 105.891 54.1855C105.94 54.0528 105.99 53.8869 106.04 53.6878C106.09 53.4887 106.156 53.3476 106.239 53.2647C106.322 53.1817 106.405 53.0822 106.488 52.9661C106.571 52.8499 106.687 52.7753 106.836 52.7421C106.986 52.7089 107.135 52.6923 107.284 52.6923C107.583 52.7089 107.79 52.8001 107.906 52.9661C108.023 53.132 108.081 53.2896 108.081 53.4389C108.081 53.555 108.006 53.9449 107.857 54.6086C107.707 55.2722 107.541 55.9276 107.359 56.5746L107.11 57.4954C107.11 57.5286 107.525 57.5452 108.354 57.5452H109.624C109.74 57.6613 109.798 57.7526 109.798 57.819C109.798 58.184 109.69 58.4743 109.474 58.69H106.811L105.915 62.2986C105.268 64.9532 104.945 66.38 104.945 66.5791C104.945 67.2759 105.169 67.6243 105.617 67.6243C106.197 67.6243 106.762 67.3423 107.309 66.7782C107.857 66.2141 108.296 65.5173 108.628 64.6877C108.661 64.5881 108.703 64.5301 108.753 64.5135C108.802 64.4969 108.927 64.4803 109.126 64.4637H109.225C109.474 64.4637 109.599 64.5301 109.599 64.6628C109.599 64.7126 109.574 64.8121 109.524 64.9614C109.441 65.2269 109.292 65.5421 109.076 65.9071C108.86 66.2721 108.578 66.662 108.23 67.0768C107.881 67.4916 107.458 67.84 106.961 68.1221C106.463 68.4041 105.957 68.5451 105.443 68.5451C104.945 68.5451 104.472 68.4207 104.024 68.1718C103.576 67.923 103.253 67.4916 103.053 66.8777C103.02 66.745 103.004 66.521 103.004 66.2058V65.7578L103.875 62.2737C104.455 59.9343 104.754 58.7564 104.771 58.7398C104.771 58.7066 104.348 58.69 103.501 58.69H102.232Z" fill="#FCFCFC"/>
<path d="M113.979 51.2738C113.995 51.2738 114.593 51.2323 115.771 51.1493C116.949 51.0664 117.554 51.0166 117.587 51C117.786 51 117.886 51.0747 117.886 51.224C117.886 51.4065 117.587 52.6591 116.99 54.9819C116.36 57.4374 116.044 58.69 116.044 58.7398C116.044 58.773 116.102 58.7315 116.219 58.6153C117.231 57.7194 118.309 57.2715 119.454 57.2715C120.35 57.2715 121.071 57.4954 121.619 57.9434C122.166 58.3914 122.448 59.0467 122.465 59.9094C122.465 60.7556 122.15 62.0663 121.519 63.8415C120.889 65.6168 120.574 66.6786 120.574 67.027C120.59 67.2593 120.632 67.4169 120.698 67.4999C120.764 67.5828 120.889 67.6243 121.071 67.6243C121.536 67.6243 121.967 67.3755 122.366 66.8777C122.764 66.38 123.087 65.6998 123.336 64.837C123.386 64.6545 123.436 64.5467 123.485 64.5135C123.535 64.4803 123.668 64.4637 123.884 64.4637C124.215 64.4637 124.381 64.5301 124.381 64.6628C124.381 64.6794 124.348 64.8038 124.282 65.0361C124.016 66.015 123.593 66.8197 123.013 67.4501C122.448 68.1635 121.777 68.5202 120.997 68.5202H120.872C120.093 68.5202 119.528 68.2963 119.18 67.8483C118.832 67.4003 118.657 66.9275 118.657 66.4298C118.657 66.1643 118.956 65.1854 119.553 63.4931C120.151 61.8008 120.458 60.5316 120.474 59.6855C120.474 58.7066 120.109 58.2171 119.379 58.2171H119.255C117.878 58.2171 116.683 59.0301 115.671 60.656L115.497 60.9796L114.651 64.3393C114.12 66.4961 113.813 67.6741 113.73 67.8732C113.514 68.3212 113.149 68.5451 112.635 68.5451C112.403 68.5451 112.203 68.4705 112.038 68.3212C111.872 68.1718 111.78 68.0225 111.764 67.8732C111.764 67.6409 112.369 65.1191 113.581 60.3076L115.422 52.9412C115.422 52.7255 115.364 52.5928 115.248 52.543C115.132 52.4932 114.808 52.4517 114.277 52.4185H113.755C113.655 52.319 113.605 52.2526 113.605 52.2194C113.605 52.1863 113.622 52.0287 113.655 51.7466C113.738 51.4314 113.846 51.2738 113.979 51.2738Z" fill="#FCFCFC"/>
</svg>
