<svg width="101" height="178" viewBox="0 0 101 178" fill="none" xmlns="http://www.w3.org/2000/svg">
<path d="M78.9334 1.3204C75.2625 2.95328 67.1048 11.2537 62.1422 18.3976C60.0347 21.3912 57.8594 24.0446 57.3835 24.2487C56.2958 24.6569 47.5942 37.2437 42.1558 46.4286C38.7567 52.0756 31.6867 67.656 22.0334 90.7884L17.7506 100.994L11.5643 105.416C8.23328 107.866 4.42635 110.451 3.20269 111.199C0.619418 112.832 -0.740201 115.826 0.415475 117.527C0.959323 118.411 2.04702 118.683 4.69827 118.615C8.09732 118.479 8.43722 118.275 12.2442 114.533L16.323 110.519L15.2353 113.921C10.9525 127.732 9.93281 132.903 9.86482 141.816C9.79684 148.755 10.0688 151.409 11.0205 154.198C14.1476 163.111 18.7703 166.105 31.9586 167.738C39.5725 168.69 52.7608 168.758 60.1027 167.806C61.2584 167.67 63.3658 167.534 64.8614 167.465C66.9688 167.329 67.3767 167.125 66.5609 166.581C65.7451 166.037 65.8131 165.969 67.0368 166.309C67.7846 166.513 70.3679 166.377 72.7472 166.037C75.1265 165.628 77.1659 165.424 77.3019 165.56C77.4379 165.697 77.03 166.853 76.3502 168.146C74.6507 171.412 74.0388 174.881 74.8546 176.378C75.4664 177.603 75.6704 177.467 77.098 175.018C79.0694 171.82 84.6438 167.329 92.3257 162.839C95.4528 161.07 98.376 158.961 98.8519 158.213C100.008 156.307 100.687 152.225 99.9396 151.137C99.6676 150.592 96.4725 149.844 92.3257 149.3C88.4508 148.823 81.4487 147.735 76.894 146.918C70.4358 145.83 68.2604 145.694 67.5126 146.306C66.4929 147.191 66.221 151.409 67.1727 151.953C67.4447 152.157 70.7757 152.974 74.4467 153.79C78.1857 154.607 81.4487 155.491 81.7207 155.763C82.3325 156.307 81.7886 156.376 68.6003 158.485C57.3835 160.322 41.9518 161.002 38.3488 159.845C34.338 158.621 30.463 155.695 29.3753 153.246C28.2197 150.388 28.2197 143.176 29.4433 136.849C29.9192 134.196 30.1231 131.95 29.7832 131.95C29.4433 131.95 29.1714 132.495 29.1034 133.107C29.1034 133.787 28.8995 133.992 28.7635 133.515C28.3556 132.631 36.8532 106.437 38.5528 103.035C39.0966 101.946 42.9715 97.3199 47.1184 92.8295C55.684 83.5765 62.9579 75.0039 69.2122 66.5674C71.5915 63.4377 75.0585 59.3555 76.962 57.5185C83.2162 51.3272 95.7247 30.5761 98.1041 22.4798C98.7159 20.4387 99.1918 17.1049 99.1918 15.1318C99.1918 4.10991 88.6547 -3.10196 78.9334 1.3204ZM89.1306 10.9816C89.6744 14.4514 88.0429 19.8263 83.896 28.3989C80.9729 34.5222 79.2733 37.3117 78.7295 36.9715C78.1857 36.6994 78.1177 36.7674 78.3896 37.2437C79.0014 38.1962 77.5738 40.9857 76.7581 40.4414C76.4182 40.2373 75.9423 40.4414 75.6704 40.8496C75.3305 41.3939 75.4664 41.4619 76.0782 41.1217C76.6221 40.7816 76.826 40.9176 76.6221 41.53C76.4182 42.0742 75.9423 42.4825 75.5344 42.4825C75.1945 42.4825 74.5827 42.7546 74.2428 43.0948C73.9029 43.435 74.0388 43.503 74.5827 43.2309C76.3502 42.2103 75.1945 44.2514 69.824 51.8715C62.9579 61.5327 47.3903 81.6715 47.0504 81.3313C46.7785 81.0592 57.7914 54.593 61.6663 46.0884C65.4732 37.856 72.2713 25.7455 76.2822 19.8263C82.1285 11.3218 88.5188 6.8994 89.1306 10.9816ZM63.0939 23.9085C59.9668 28.3989 54.1204 36.019 53.8485 36.019C52.9647 36.019 58.5392 27.5825 61.6663 24.2487C64.6574 21.119 65.0653 21.051 63.0939 23.9085ZM19.3822 113.989C18.8383 115.418 18.3624 116.302 18.3624 115.894C18.2945 114.873 19.7221 110.723 20.062 111.063C20.1979 111.199 19.926 112.492 19.3822 113.989ZM18.0905 119.16C17.8866 119.704 17.6826 119.5 17.6826 118.751C17.6146 118.003 17.8186 117.595 18.0225 117.867C18.2265 118.071 18.2945 118.683 18.0905 119.16ZM17.4107 122.561C17.2068 123.038 17.0708 122.697 17.0708 121.745C17.0708 120.792 17.2068 120.452 17.4107 120.86C17.5467 121.337 17.5467 122.153 17.4107 122.561ZM16.7309 125.963C16.527 126.439 16.391 126.099 16.391 125.147C16.391 124.194 16.527 123.854 16.7309 124.262C16.8669 124.739 16.8669 125.555 16.7309 125.963Z" fill="#5D5E60"/>
<path d="M64.7934 56.2258C61.1224 60.8523 60.9185 61.1925 61.3264 61.1925C61.5303 61.1925 63.1618 59.3555 64.8614 57.1103C68.6003 52.2797 68.5323 51.5993 64.7934 56.2258Z" fill="#5D5E60"/>
</svg>
