<svg width="19" height="32" viewBox="0 0 19 32" fill="none" xmlns="http://www.w3.org/2000/svg">
<path d="M14.2597 0.238535C13.5965 0.533522 12.1228 2.03303 11.2263 3.3236C10.8455 3.8644 10.4526 4.34376 10.3666 4.38063C10.1701 4.45438 8.59811 6.72823 7.61563 8.38753C7.00157 9.40768 5.72434 12.2223 3.98043 16.4013L3.20673 18.245L2.08915 19.0439C1.48738 19.4864 0.79964 19.9534 0.578581 20.0886C0.111901 20.3836 -0.133721 20.9244 0.0750575 21.2317C0.173306 21.3915 0.369803 21.4407 0.848764 21.4284C1.46282 21.4038 1.52422 21.3669 2.21196 20.6909L2.94883 19.9657L2.75233 20.5803C1.97862 23.0754 1.79441 24.0095 1.78212 25.6196C1.76984 26.8733 1.81897 27.3527 1.9909 27.8566C2.55583 29.4667 3.39094 30.0075 5.77347 30.3025C7.14895 30.4746 9.53147 30.4869 10.8578 30.3148C11.0666 30.2902 11.4473 30.2657 11.7175 30.2534C12.0982 30.2288 12.1719 30.1919 12.0245 30.0936C11.8772 29.9953 11.8894 29.983 12.1105 30.0444C12.2456 30.0813 12.7123 30.0567 13.1421 29.9953C13.5719 29.9215 13.9404 29.8846 13.9649 29.9092C13.9895 29.9338 13.9158 30.1427 13.793 30.3763C13.486 30.9662 13.3754 31.5931 13.5228 31.8635C13.6333 32.0847 13.6702 32.0602 13.9281 31.6177C14.2842 31.04 15.2913 30.2288 16.6791 29.4176C17.244 29.098 17.7721 28.717 17.858 28.5818C18.0668 28.2376 18.1896 27.5002 18.0545 27.3035C18.0054 27.2052 17.4282 27.07 16.6791 26.9716C15.979 26.8856 14.7141 26.689 13.8912 26.5415C12.7245 26.3448 12.3316 26.3202 12.1965 26.4308C12.0122 26.5906 11.9631 27.3527 12.1351 27.451C12.1842 27.4879 12.786 27.6354 13.4491 27.7829C14.1246 27.9304 14.7141 28.0901 14.7632 28.1393C14.8737 28.2376 14.7755 28.2499 12.393 28.6309C10.3666 28.9628 7.57878 29.0857 6.92789 28.8768C6.20331 28.6555 5.50329 28.127 5.30679 27.6845C5.09801 27.1683 5.09801 25.8654 5.31907 24.7224C5.40504 24.243 5.44188 23.8374 5.38048 23.8374C5.31907 23.8374 5.26995 23.9357 5.25766 24.0464C5.25766 24.1693 5.22082 24.2062 5.19626 24.1201C5.12257 23.9603 6.65771 19.2283 6.96473 18.6137C7.06298 18.4171 7.763 17.5813 8.51215 16.77C10.0596 15.0985 11.3736 13.5498 12.5035 12.0257C12.9333 11.4603 13.5597 10.7228 13.9035 10.391C15.0334 9.27248 17.2931 5.5237 17.7229 4.06106C17.8335 3.69233 17.9194 3.09007 17.9194 2.73363C17.9194 0.74247 16.0159 -0.560387 14.2597 0.238535ZM16.1018 1.98387C16.2001 2.61071 15.9053 3.58171 15.1562 5.13039C14.6281 6.23658 14.3211 6.74052 14.2228 6.67906C14.1246 6.6299 14.1123 6.64219 14.1614 6.72823C14.272 6.9003 14.0141 7.40424 13.8667 7.30591C13.8053 7.26904 13.7193 7.30591 13.6702 7.37966C13.6088 7.47798 13.6333 7.49027 13.7439 7.42882C13.8421 7.36736 13.879 7.39195 13.8421 7.50257C13.8053 7.60089 13.7193 7.67464 13.6456 7.67464C13.5842 7.67464 13.4737 7.72381 13.4123 7.78526C13.3509 7.84672 13.3754 7.85901 13.4737 7.80984C13.793 7.62548 13.5842 7.99421 12.614 9.37081C11.3736 11.1161 8.56127 14.7543 8.49986 14.6929C8.45074 14.6437 10.4403 9.86246 11.1403 8.32607C11.828 6.83885 13.0561 4.65104 13.7807 3.58171C14.8369 2.04532 15.9913 1.2464 16.1018 1.98387ZM11.3982 4.31918C10.8333 5.13039 9.77709 6.50699 9.72797 6.50699C9.56832 6.50699 10.5754 4.98289 11.1403 4.38063C11.6807 3.81524 11.7543 3.80295 11.3982 4.31918ZM3.50147 20.5926C3.40322 20.8507 3.31726 21.0105 3.31726 20.9367C3.30498 20.7524 3.56288 20.0026 3.62428 20.0641C3.64885 20.0886 3.59972 20.3222 3.50147 20.5926ZM3.26813 21.5267C3.23129 21.625 3.19445 21.5882 3.19445 21.4529C3.18217 21.3177 3.21901 21.244 3.25585 21.2932C3.29269 21.33 3.30498 21.4407 3.26813 21.5267ZM3.14532 22.1412C3.10848 22.2273 3.08392 22.1658 3.08392 21.9938C3.08392 21.8217 3.10848 21.7602 3.14532 21.834C3.16988 21.92 3.16988 22.0675 3.14532 22.1412ZM3.02251 22.7558C2.98567 22.8418 2.96111 22.7804 2.96111 22.6083C2.96111 22.4362 2.98567 22.3748 3.02251 22.4485C3.04707 22.5346 3.04707 22.6821 3.02251 22.7558Z" fill="#FCFCFC"/>
<path d="M11.7053 10.1574C11.0421 10.9932 11.0053 11.0547 11.079 11.0547C11.1158 11.0547 11.4106 10.7228 11.7176 10.3172C12.393 9.44455 12.3808 9.32164 11.7053 10.1574Z" fill="#FCFCFC"/>
</svg>
